<?xml version="1.0" encoding="utf-8"?>
<!-- Generator: Adobe Illustrator 23.0.2, SVG Export Plug-In . SVG Version: 6.00 Build 0)  -->
<svg version="1.1" id="Layer_1" xmlns="http://www.w3.org/2000/svg" xmlns:xlink="http://www.w3.org/1999/xlink" x="0px" y="0px"
	 viewBox="0 0 41.33 29.19" style="enable-background:new 0 0 41.33 29.19;" xml:space="preserve">
<style type="text/css">
	.st0{fill:url(#SVGID_1_);}
	.st1{fill:url(#SVGID_2_);}
	.st2{fill:url(#SVGID_3_);}
	.st3{opacity:0.5;fill:url(#SVGID_4_);}
	.st4{fill:url(#SVGID_5_);}
	.st5{fill:#41CCE1;}
	.st6{fill:url(#SVGID_6_);}
	.st7{opacity:0.5;fill:url(#SVGID_7_);}
	.st8{fill:#E1FFFF;}
	.st9{opacity:0.5;fill:url(#SVGID_8_);}
	.st10{fill:url(#SVGID_9_);}
	.st11{clip-path:url(#SVGID_11_);}
	.st12{fill:url(#SVGID_12_);}
	.st13{opacity:0.73;fill:url(#SVGID_13_);}
	.st14{opacity:0.73;fill:url(#SVGID_14_);}
	.st15{opacity:0.73;fill:url(#SVGID_15_);}
	.st16{opacity:0.73;fill:url(#SVGID_16_);}
	.st17{fill:url(#SVGID_17_);}
	.st18{fill:url(#SVGID_18_);}
	.st19{fill:url(#SVGID_19_);}
	.st20{fill:#F9CE5B;}
	.st21{opacity:0.73;fill:#F9CE5B;}
	.st22{opacity:0.73;fill:#F2AF47;}
	.st23{opacity:0.7;}
	.st24{fill:#FFFFFF;}
	.st25{fill:#73654A;}
	.st26{fill:#FFF294;}
	.st27{opacity:0.46;}
	.st28{fill:url(#SVGID_20_);}
	.st29{opacity:0.23;fill:url(#SVGID_21_);}
	.st30{fill:url(#SVGID_22_);}
	.st31{opacity:0.23;fill:url(#SVGID_23_);}
	.st32{fill:url(#SVGID_24_);}
	.st33{opacity:0.26;fill:url(#SVGID_25_);}
	.st34{fill:url(#SVGID_26_);}
	.st35{opacity:0.38;fill:url(#SVGID_27_);}
	.st36{fill:url(#SVGID_28_);}
	.st37{opacity:0.38;fill:url(#SVGID_29_);}
	.st38{fill:url(#SVGID_30_);}
	.st39{opacity:0.38;fill:url(#SVGID_31_);}
	.st40{opacity:0.23;fill:url(#SVGID_32_);}
	.st41{fill-rule:evenodd;clip-rule:evenodd;fill:url(#SVGID_33_);}
	.st42{fill-rule:evenodd;clip-rule:evenodd;fill:url(#SVGID_34_);}
	.st43{opacity:0.52;fill-rule:evenodd;clip-rule:evenodd;fill:url(#SVGID_35_);}
	.st44{fill-rule:evenodd;clip-rule:evenodd;fill:url(#SVGID_36_);}
	.st45{fill-rule:evenodd;clip-rule:evenodd;fill:url(#SVGID_37_);}
	.st46{fill-rule:evenodd;clip-rule:evenodd;fill:url(#SVGID_38_);}
	.st47{opacity:0.5;fill-rule:evenodd;clip-rule:evenodd;fill:url(#SVGID_39_);}
	.st48{fill:url(#SVGID_40_);}
	.st49{fill:url(#SVGID_41_);}
	.st50{opacity:0.73;fill:url(#SVGID_42_);}
	.st51{fill:url(#SVGID_43_);}
	.st52{fill:url(#SVGID_44_);}
	.st53{opacity:0.82;fill:url(#SVGID_45_);}
	.st54{opacity:0.51;fill:#657A83;}
	.st55{fill:url(#SVGID_46_);}
	.st56{opacity:0.39;fill:#7D5942;}
	.st57{opacity:0.69;fill:#7D5942;}
	.st58{opacity:0.86;fill:#644836;}
	.st59{fill:#4F3C2F;}
	.st60{fill:#D8A752;}
	.st61{fill:#F2DAA8;}
	.st62{fill:#CEAC6A;}
	.st63{opacity:0.56;fill:url(#SVGID_47_);}
	.st64{fill:#F8E2B3;}
	.st65{fill:#EFD192;}
	.st66{fill:url(#SVGID_48_);}
	.st67{fill:#7D5942;}
	.st68{opacity:0.56;fill:url(#SVGID_49_);}
	.st69{opacity:0.23;fill:#224352;}
	.st70{fill:#E5C071;}
	.st71{fill:#DCB466;}
	.st72{fill:url(#SVGID_50_);}
	.st73{opacity:0.72;fill:#7D5942;}
	.st74{opacity:0.56;fill:url(#SVGID_51_);}
	.st75{fill:url(#SVGID_52_);}
	.st76{opacity:0.15;fill:#0C2E3E;}
	.st77{opacity:0.48;fill:url(#SVGID_53_);}
	.st78{opacity:0.97;}
	.st79{fill:#304C59;}
	.st80{opacity:0.37;fill:url(#SVGID_54_);}
	.st81{opacity:0.51;fill:#ADBABB;}
	.st82{opacity:0.23;fill:#304C59;}
	.st83{opacity:0.73;fill:url(#SVGID_55_);}
	.st84{fill:url(#SVGID_56_);}
	.st85{opacity:0.57;fill:#D8A752;}
	.st86{opacity:0.83;fill:#A27D3E;}
	.st87{opacity:0.56;fill:url(#SVGID_57_);}
	.st88{fill:#685041;}
	.st89{opacity:0.33;fill:url(#SVGID_58_);}
	.st90{opacity:0.56;fill-rule:evenodd;clip-rule:evenodd;fill:url(#SVGID_59_);}
	.st91{opacity:0;fill:#7F6940;}
	.st92{opacity:0.0156;fill:#7A6742;}
	.st93{opacity:0.0313;fill:#756543;}
	.st94{opacity:0.0469;fill:#706445;}
	.st95{opacity:0.0625;fill:#6B6246;}
	.st96{opacity:0.0781;fill:#666048;}
	.st97{opacity:0.0938;fill:#615E49;}
	.st98{opacity:0.1094;fill:#5C5C4B;}
	.st99{opacity:0.125;fill:#585B4D;}
	.st100{opacity:0.1406;fill:#53594E;}
	.st101{opacity:0.1563;fill:#4E5750;}
	.st102{opacity:0.1719;fill:#495551;}
	.st103{opacity:0.1875;fill:#445353;}
	.st104{opacity:0.2031;fill:#3F5154;}
	.st105{opacity:0.2188;fill:#3A5056;}
	.st106{opacity:0.2344;fill:#354E57;}
	.st107{opacity:0.25;fill:#304C59;}
	.st108{fill:url(#SVGID_60_);}
	.st109{fill:url(#SVGID_61_);}
	.st110{opacity:0.25;fill:url(#SVGID_62_);}
	.st111{opacity:0.25;fill:url(#SVGID_63_);}
	.st112{opacity:0.59;fill:url(#SVGID_64_);}
	.st113{opacity:0.59;fill:url(#SVGID_65_);}
	.st114{opacity:0.59;fill:url(#SVGID_66_);}
	.st115{opacity:0.59;fill:url(#SVGID_67_);}
	.st116{opacity:0.59;fill:url(#SVGID_68_);}
	.st117{opacity:0.59;fill:url(#SVGID_69_);}
	.st118{opacity:0.33;fill:#F8C65E;}
	.st119{opacity:0.53;fill:url(#SVGID_70_);}
	.st120{opacity:0.62;fill:url(#SVGID_71_);}
	.st121{opacity:0.62;fill:url(#SVGID_72_);}
	.st122{opacity:0.81;fill:url(#SVGID_73_);}
	.st123{fill:url(#SVGID_74_);}
	.st124{opacity:0.92;fill:url(#SVGID_75_);}
	.st125{opacity:0.92;fill:url(#SVGID_76_);}
	.st126{opacity:0.92;fill:url(#SVGID_77_);}
	.st127{opacity:0.92;fill:url(#SVGID_78_);}
	.st128{opacity:0.71;fill:url(#SVGID_79_);}
	.st129{opacity:0.92;fill:url(#SVGID_80_);}
	.st130{opacity:0.71;fill:url(#SVGID_81_);}
	.st131{opacity:0.71;fill:url(#SVGID_82_);}
	.st132{opacity:0.92;fill:url(#SVGID_83_);}
	.st133{opacity:0.92;fill:#FED76F;}
	.st134{opacity:0.92;fill:url(#SVGID_84_);}
	.st135{opacity:0.62;fill:url(#SVGID_85_);}
	.st136{opacity:0.44;fill:#7F3F98;}
	.st137{opacity:0.32;fill:#7F3F98;}
	.st138{opacity:0.43;fill:#7F6940;}
	.st139{opacity:0.25;fill:#7F3F98;}
	.st140{opacity:0.45;fill:#7F6940;}
	.st141{opacity:0.44;fill:url(#SVGID_86_);}
	.st142{opacity:0.6;fill:url(#SVGID_87_);}
	.st143{opacity:0.6;fill:url(#SVGID_88_);}
	.st144{opacity:0.6;fill:url(#SVGID_89_);}
	.st145{opacity:0.6;fill:url(#SVGID_90_);}
	.st146{opacity:0.6;fill:url(#SVGID_91_);}
	.st147{opacity:0.6;fill:url(#SVGID_92_);}
	.st148{opacity:0.6;fill:url(#SVGID_93_);}
	.st149{opacity:0.56;fill:url(#SVGID_94_);}
	.st150{opacity:0.68;fill:url(#SVGID_95_);}
	.st151{opacity:0.53;fill:url(#SVGID_96_);}
	.st152{opacity:0.92;fill:url(#SVGID_97_);}
	.st153{opacity:0.92;fill:url(#SVGID_98_);}
	.st154{opacity:0.25;fill:url(#SVGID_99_);}
	.st155{opacity:0.25;fill:url(#SVGID_100_);}
	.st156{opacity:0.73;fill:url(#SVGID_101_);}
	.st157{fill:url(#SVGID_102_);}
	.st158{opacity:0.77;fill:#4F3C2F;}
	.st159{opacity:0.56;fill:url(#SVGID_103_);}
	.st160{opacity:0.28;fill:url(#SVGID_104_);}
	.st161{display:none;}
	.st162{display:inline;opacity:0.8;}
	.st163{fill:url(#SVGID_105_);}
	.st164{opacity:0.15;fill:#0094E8;}
	.st165{fill:url(#SVGID_106_);}
	.st166{display:inline;}
	.st167{fill:url(#SVGID_107_);}
	.st168{fill:url(#SVGID_108_);}
	.st169{fill:url(#SVGID_109_);}
	.st170{fill:url(#SVGID_110_);}
	.st171{fill:url(#SVGID_111_);}
	.st172{fill:url(#SVGID_112_);}
	.st173{fill:url(#SVGID_113_);}
	.st174{fill:url(#SVGID_114_);}
	.st175{fill:url(#SVGID_115_);}
	.st176{fill:url(#SVGID_116_);}
	.st177{fill:url(#SVGID_117_);}
	.st178{fill:url(#SVGID_118_);}
	.st179{opacity:0.4;}
	.st180{fill:#EDEDED;}
	.st181{fill:#DEDEDE;}
	.st182{opacity:0.5;}
	.st183{fill:#FF4871;}
	.st184{fill:none;stroke:#FFFFFF;stroke-width:1.5;stroke-linecap:round;stroke-linejoin:round;stroke-miterlimit:10;}
	.st185{fill:#252F43;}
	.st186{fill:#50E3C2;stroke:#FFFFFF;stroke-linecap:round;stroke-linejoin:round;stroke-miterlimit:10;}
	.st187{fill:none;stroke:#5D6575;stroke-width:1.5;stroke-miterlimit:10;}
	.st188{fill:#00E2EF;}
	.st189{fill:#B5BDCB;}
	.st190{fill:#FFFFFF;stroke:#FFFFFF;stroke-width:0.5;stroke-linecap:round;stroke-linejoin:round;stroke-miterlimit:10;}
	.st191{fill:#6E3923;}
	.st192{fill:#BC905C;}
	.st193{fill:url(#SVGID_119_);}
	.st194{clip-path:url(#SVGID_121_);}
	.st195{opacity:0.3;fill:#D7A456;}
	.st196{opacity:0.3;fill:#BC905C;}
	.st197{opacity:0.4;fill:#C6803E;}
	.st198{opacity:0.3;fill:#C6803E;}
	.st199{opacity:0.5;fill:#D7A456;}
	.st200{opacity:0.4;fill:#D7A456;}
	.st201{fill:#D7A456;}
	.st202{opacity:0.5;fill:#C6803E;}
	.st203{opacity:0.5;fill:#BC905C;}
	.st204{opacity:0.3;}
	.st205{opacity:0.6;fill:url(#SVGID_122_);}
	.st206{fill:#50E3C2;stroke:#FFFFFF;stroke-miterlimit:10;}
	.st207{fill:#FAE711;}
	.st208{fill:#FF9C00;}
	.st209{fill:#EB9000;}
	.st210{fill:#DBCC1A;}
	.st211{fill:#267071;}
	.st212{fill:#5D577B;}
	.st213{fill:#2E888A;}
	.st214{fill:#00B3C0;}
	.st215{fill:#00D6E6;}
	.st216{opacity:0.57;fill:#00B3C0;}
	.st217{fill:#A486B0;}
	.st218{fill:#F1F1F1;}
	.st219{fill:#E3E3E3;}
	.st220{opacity:0.6;fill:#C9C9C9;}
	.st221{fill:#8B6799;}
	.st222{fill:#914D90;}
	.st223{fill:none;}
	.st224{fill:#008DEB;}
	.st225{fill:#00FFEE;}
	.st226{fill:#35C6F6;}
	.st227{opacity:0.79;fill:#35C6F6;}
	.st228{fill:#6F3FA2;}
</style>
<g>
	<g>
		<path class="st223" d="M19.48,2.7c-6.5,0-11.15,0.59-14.45,1.76c4.33,2.01,7.34,6.39,7.34,11.48c0,4.99-2.9,9.31-7.1,11.37
			c3.35,1.25,7.98,1.88,14.21,1.88c12.07,0,21.85-11.02,21.85-13.24C41.33,13.7,31.54,2.7,19.48,2.7z"/>
	</g>
	<path class="st224" d="M13.14,18.26c-1.25,1.25-3.14,2.55-5.67,2.55C2.49,20.81,0,19.2,0,15.95c0-3.26,2.49-4.86,7.47-4.86
		c2.27,0,4.32,1.36,5.69,2.64"/>
	<path class="st225" d="M24.36,3.8c-0.04-0.36-1.79-1.41-5.27-2.71C17,0.31,13.06-0.75,12.25,0.78c-0.22,0.42,0.5,1.19,1.79,2.04
		L24.36,3.8z"/>
	<g>
		<g id="XMLID_12_">
			<g>
				<path class="st226" d="M41.33,15.95c0,1.46-4.24,6.74-10.59,10.18c1.52-3.33,2.28-7.16,0.38-10.34
					c-2.55-4.26-2.08-8.07-1.27-10.47C36.69,8.71,41.33,14.4,41.33,15.95z"/>
				<g>
					<path class="st224" d="M12.8,10.97c-1.74-2.92-2.07-5.63-1.85-7.82C9.3,3.36,7.84,3.64,6.55,4C6.01,4.14,5.51,4.3,5.02,4.47
						C5.57,4.72,6.09,5,6.58,5.32c3.48,2.25,5.79,6.17,5.79,10.63c0,5-2.9,9.31-7.1,11.37C6.1,27.62,7,27.89,7.99,28.12
						C10.56,25.2,16.37,16.94,12.8,10.97z"/>
					<path class="st224" d="M20.09,2.72c-0.2-0.01-0.41-0.02-0.62-0.02c-1.32,0-2.57,0.03-3.75,0.08c-0.69,2.4-0.93,5.97,1.43,9.93
						c3.23,5.41-1.25,12.73-4.03,16.22c1.29,0.12,2.68,0.2,4.16,0.23c2.76-3.38,7.53-10.91,4.22-16.45
						C19.12,8.71,19.39,5.12,20.09,2.72z"/>
					<path class="st224" d="M31.12,15.78c-2.55-4.26-2.08-8.07-1.27-10.47c-1.18-0.59-2.42-1.1-3.72-1.52
						c-1.01,2.02-2.56,6.64,0.64,11.98c2.34,3.93,0.63,8.86-1.56,12.6c1.97-0.55,3.82-1.34,5.53-2.26
						C32.25,22.8,33.02,18.96,31.12,15.78z"/>
				</g>
				<path class="st226" d="M17.29,29.16c2.76-3.38,7.53-10.91,4.22-16.45c-2.39-4-2.12-7.58-1.42-9.98c2.1,0.06,4.13,0.46,6.04,1.08
					c-1.01,2.02-2.56,6.64,0.64,11.98c2.34,3.93,0.63,8.86-1.56,12.6c-1.83,0.51-3.75,0.81-5.73,0.81
					C18.72,29.19,17.99,29.18,17.29,29.16z"/>
				<path class="st226" d="M7.99,28.12c2.57-2.92,8.38-11.18,4.81-17.15c-1.74-2.92-2.07-5.63-1.85-7.82
					c1.44-0.18,3.03-0.31,4.77-0.38c-0.69,2.4-0.93,5.97,1.43,9.93c3.23,5.41-1.25,12.73-4.03,16.22
					C11.21,28.75,9.5,28.48,7.99,28.12z"/>
			</g>
			<g>
				<path class="st223" d="M6.55,4C6.01,4.14,5.51,4.3,5.02,4.47C5.57,4.72,6.09,5,6.58,5.32"/>
				<path class="st223" d="M10.96,3.16C9.3,3.36,7.84,3.64,6.55,4C6.54,4.42,6.54,4.87,6.58,5.32c3.48,2.25,5.79,6.17,5.79,10.63
					c0,5-2.9,9.31-7.1,11.37C6.1,27.62,7,27.89,7.99,28.12"/>
				<path class="st223" d="M17.29,29.16c0.71,0.02,1.43,0.03,2.19,0.03c1.99,0,3.91-0.3,5.73-0.81"/>
				<path class="st223" d="M26.13,3.8c-1.91-0.62-3.94-1.01-6.04-1.08"/>
				<path class="st223" d="M30.74,26.12c6.35-3.44,10.59-8.72,10.59-10.18c0-1.54-4.64-7.24-11.47-10.63"/>
				<path class="st223" d="M30.74,26.12c1.52-3.33,2.28-7.16,0.38-10.34c-2.55-4.26-2.08-8.07-1.27-10.47
					c-1.18-0.59-2.42-1.1-3.72-1.52c-1.01,2.02-2.56,6.64,0.64,11.98c2.34,3.93,0.63,8.86-1.56,12.6
					C27.18,27.83,29.03,27.04,30.74,26.12z"/>
				<path class="st223" d="M15.72,2.78c-1.74,0.07-3.33,0.2-4.77,0.38c-0.22,2.18,0.1,4.89,1.85,7.82
					c3.56,5.96-2.24,14.23-4.81,17.15c1.51,0.36,3.22,0.63,5.13,0.8"/>
				<path class="st223" d="M17.29,29.16c2.76-3.38,7.53-10.91,4.22-16.45c-2.39-4-2.12-7.58-1.42-9.98
					c-0.2-0.01-0.41-0.02-0.62-0.02c-1.32,0-2.57,0.03-3.75,0.08c-0.69,2.4-0.93,5.97,1.43,9.93c3.23,5.41-1.25,12.73-4.03,16.22
					C14.41,29.04,15.8,29.12,17.29,29.16z"/>
			</g>
		</g>
	</g>
	<path class="st227" d="M12.37,15.95c0,5-2.9,9.31-7.1,11.37C6.1,27.62,7,27.89,7.99,28.12c1.51,0.36,3.22,0.63,5.13,0.8
		c1.29,0.12,2.68,0.2,4.16,0.23c0.71,0.02,1.43,0.03,2.19,0.03c1.99,0,3.91-0.3,5.73-0.81c1.97-0.55,3.82-1.34,5.53-2.26
		c6.33-3.43,10.57-8.7,10.59-10.17L12.37,15.95z"/>
	<path class="st228" d="M4.44,11.34C1.48,11.91,0,13.44,0,15.95c0,2.51,1.48,4.03,4.44,4.6C0.14,16.38,4.35,11.45,4.44,11.34z"/>
	<g>
		<path class="st24" d="M37.55,13.88c0,1.54-1.25,2.8-2.8,2.8c-1.54,0-2.8-1.25-2.8-2.8s1.25-2.8,2.8-2.8
			C36.29,11.08,37.55,12.34,37.55,13.88z"/>
		<circle cx="34.75" cy="13.88" r="1.73"/>
	</g>
</g>
</svg>
